<svg width="168" height="56" viewBox="0 0 168 56" fill="none" xmlns="http://www.w3.org/2000/svg">
  <rect x="2.6875" y="2.6875" width="50.625" height="50.625" rx="25.3125" fill="#FFD663"/>
  <path fill-rule="evenodd" clip-rule="evenodd" d="M2.81248 25.4687C2.72982 26.3013 2.6875 27.1457 2.6875 28C2.6875 41.9797 14.0203 53.3125 28 53.3125C41.9797 53.3125 53.3125 41.9797 53.3125 28C53.3125 27.1457 53.2702 26.3013 53.1875 25.4688C51.9175 38.26 41.1254 48.25 28 48.25C14.8746 48.25 4.08247 38.26 2.81248 25.4687Z" fill="#FFD04C"/>
  <circle cx="10.2812" cy="32.2188" r="4.21875" fill="#FF759B" fill-opacity="0.2"/>
  <circle cx="45.7188" cy="32.2188" r="4.21875" fill="#FF759B" fill-opacity="0.2"/>
  <path fill-rule="evenodd" clip-rule="evenodd" d="M42.2238 34.9131C43.0657 35.3129 43.4241 36.3194 43.0244 37.1613C41.512 40.3466 39.167 42.0146 36.8167 42.7338C34.5329 43.4326 32.3046 43.222 30.8812 42.7864C29.99 42.5137 29.4886 41.5702 29.7614 40.679C30.0341 39.7878 30.9776 39.2864 31.8688 39.5591C32.7379 39.8251 34.2729 39.9827 35.8291 39.5065C37.3186 39.0507 38.8899 38.0003 39.9756 35.7137C40.3753 34.8718 41.3819 34.5134 42.2238 34.9131Z" fill="#52565F"/>
  <path fill-rule="evenodd" clip-rule="evenodd" d="M34.7648 13.4726C34.0939 12.8256 34.0745 11.7574 34.7214 11.0865C36.1123 9.64403 38.2841 9.44616 39.963 9.80153C41.6681 10.1625 43.5943 11.2454 44.3067 13.2595C44.6175 14.1381 44.1571 15.1023 43.2785 15.4131C42.3998 15.7238 41.4356 15.2635 41.1249 14.3848C40.9475 13.8834 40.3122 13.3252 39.2641 13.1034C38.1897 12.8759 37.4166 13.1536 37.1509 13.4291C36.504 14.1 35.4357 14.1195 34.7648 13.4726Z" fill="#52565F"/>
  <path d="M15.0988 33.0625C28 33.0625 24.625 19.5625 28 19.5625C31.375 19.5625 29.6875 33.0625 41.6769 33.0625C50.0464 33.0625 51.4209 25.8705 51.625 21.25L53.3125 20.2053V16.1875H42.2893C34.75 16.1875 33.0625 17.875 28 17.875C22.9375 17.875 21.1411 16.1875 14.4456 16.1875H2.6875V20.4062L4.375 21.25C4.375 26.3125 6.17137 33.0625 15.0988 33.0625Z" fill="#52565F"/>
  <path d="M16.1875 17.8749L7.75 27.9999C7.75 27.9999 8.67123 29.1569 9.4375 29.6874C10.0433 30.1068 11.125 30.5311 11.125 30.5311L19.5625 18.7186C19.5625 18.7186 19.0001 18.1251 17.875 17.8749C17.2317 17.7318 16.1875 17.8749 16.1875 17.8749Z" fill="#5F646F"/>
  <path d="M43.1875 17.875L34.75 28C34.75 28 35.6712 29.157 36.4375 29.6875C37.0433 30.1069 38.125 30.5313 38.125 30.5313L46.5625 17.875H43.1875Z" fill="#5F646F"/>
  <path d="M67 25.2026V10.205H73.3168C74.4029 10.205 75.3533 10.4247 76.1679 10.8641C76.9825 11.3035 77.6161 11.9211 78.0686 12.7168C78.5212 13.5126 78.7475 14.4426 78.7475 15.5069C78.7475 16.581 78.5141 17.511 78.0472 18.297C77.5851 19.083 76.9349 19.6884 76.0964 20.1131C75.2628 20.5378 74.2886 20.7502 73.1739 20.7502H69.4009V17.5867H72.3735C72.8404 17.5867 73.2382 17.5037 73.5669 17.3377C73.9003 17.1668 74.1552 16.9251 74.3315 16.6127C74.5125 16.3002 74.603 15.9317 74.603 15.5069C74.603 15.0773 74.5125 14.7111 74.3315 14.4085C74.1552 14.1009 73.9003 13.8666 73.5669 13.7055C73.2382 13.5395 72.8404 13.4565 72.3735 13.4565H70.973V25.2026H67Z" fill="#52565F"/>
  <path d="M80.4064 25.2026V10.205H86.7232C87.8093 10.205 88.7597 10.4076 89.5743 10.8129C90.3889 11.2181 91.0225 11.8015 91.4751 12.5631C91.9276 13.3247 92.1539 14.2376 92.1539 15.3019C92.1539 16.3759 91.9205 17.2815 91.4536 18.0187C90.9915 18.7559 90.3413 19.3124 89.5029 19.6884C88.6692 20.0643 87.695 20.2522 86.5803 20.2522H82.8074V17.0887H85.78C86.2468 17.0887 86.6446 17.0301 86.9733 16.9129C87.3068 16.7909 87.5616 16.598 87.7379 16.3344C87.9189 16.0708 88.0094 15.7266 88.0094 15.3019C88.0094 14.8723 87.9189 14.5232 87.7379 14.2547C87.5616 13.9813 87.3068 13.7811 86.9733 13.6542C86.6446 13.5224 86.2468 13.4565 85.78 13.4565H84.3794V25.2026H80.4064ZM88.9812 18.319L92.6398 25.2026H88.3238L84.751 18.319H88.9812Z" fill="#52565F"/>
  <path d="M108.226 17.7038C108.226 19.3735 107.909 20.7819 107.275 21.9292C106.642 23.0716 105.787 23.9382 104.71 24.5289C103.633 25.1147 102.433 25.4076 101.109 25.4076C99.7747 25.4076 98.5695 25.1123 97.4929 24.5216C96.421 23.926 95.5683 23.057 94.9347 21.9146C94.3059 20.7673 93.9915 19.3637 93.9915 17.7038C93.9915 16.0342 94.3059 14.6282 94.9347 13.4858C95.5683 12.3385 96.421 11.4719 97.4929 10.8861C98.5695 10.2954 99.7747 10 101.109 10C102.433 10 103.633 10.2954 104.71 10.8861C105.787 11.4719 106.642 12.3385 107.275 13.4858C107.909 14.6282 108.226 16.0342 108.226 17.7038ZM104.138 17.7038C104.138 16.8055 104.022 16.0488 103.788 15.4337C103.56 14.8137 103.219 14.345 102.766 14.0277C102.319 13.7055 101.766 13.5443 101.109 13.5443C100.451 13.5443 99.8962 13.7055 99.4436 14.0277C98.9958 14.345 98.6552 14.8137 98.4218 15.4337C98.1931 16.0488 98.0788 16.8055 98.0788 17.7038C98.0788 18.6021 98.1931 19.3613 98.4218 19.9813C98.6552 20.5964 98.9958 21.0651 99.4436 21.3873C99.8962 21.7046 100.451 21.8633 101.109 21.8633C101.766 21.8633 102.319 21.7046 102.766 21.3873C103.219 21.0651 103.56 20.5964 103.788 19.9813C104.022 19.3613 104.138 18.6021 104.138 17.7038Z" fill="#52565F"/>
  <path d="M116.296 10.205H120.212V20.4866C120.207 21.463 119.967 22.3222 119.49 23.0643C119.019 23.8015 118.366 24.3775 117.532 24.7925C116.703 25.2026 115.748 25.4076 114.667 25.4076C113.728 25.4076 112.871 25.2417 112.094 24.9097C111.318 24.5728 110.699 24.0456 110.237 23.3279C109.774 22.6054 109.546 21.668 109.551 20.5159H113.524C113.538 20.8918 113.6 21.2091 113.709 21.4679C113.824 21.7266 113.981 21.9219 114.181 22.0537C114.386 22.1806 114.633 22.2441 114.924 22.2441C115.219 22.2441 115.467 22.1782 115.667 22.0464C115.872 21.9146 116.027 21.7193 116.132 21.4605C116.236 21.1969 116.291 20.8723 116.296 20.4866V10.205Z" fill="#52565F"/>
  <path d="M122.296 25.2026V10.205H132.843V13.4858H126.269V16.0635H132.3V19.3442H126.269V21.9219H132.814V25.2026H122.296Z" fill="#52565F"/>
  <path d="M148.677 15.8291H144.647C144.618 15.4874 144.542 15.1774 144.418 14.8991C144.299 14.6208 144.133 14.3816 143.918 14.1814C143.709 13.9764 143.454 13.8202 143.154 13.7128C142.853 13.6005 142.513 13.5443 142.132 13.5443C141.465 13.5443 140.9 13.7103 140.438 14.0423C139.981 14.3743 139.633 14.8503 139.395 15.4703C139.161 16.0903 139.045 16.8348 139.045 17.7038C139.045 18.6216 139.164 19.3906 139.402 20.0106C139.645 20.6257 139.995 21.0895 140.452 21.402C140.91 21.7095 141.46 21.8633 142.103 21.8633C142.47 21.8633 142.799 21.8169 143.089 21.7242C143.38 21.6265 143.632 21.4874 143.847 21.3068C144.061 21.1261 144.235 20.9089 144.368 20.655C144.506 20.3963 144.599 20.1058 144.647 19.7836L148.677 19.8129C148.63 20.4475 148.456 21.0944 148.156 21.7535C147.855 22.4076 147.429 23.013 146.876 23.5696C146.329 24.1212 145.65 24.5655 144.84 24.9024C144.03 25.2392 143.089 25.4076 142.017 25.4076C140.674 25.4076 139.469 25.1123 138.402 24.5216C137.339 23.9308 136.499 23.0618 135.879 21.9146C135.265 20.7673 134.957 19.3637 134.957 17.7038C134.957 16.0342 135.272 14.6282 135.901 13.4858C136.53 12.3385 137.377 11.4719 138.445 10.8861C139.512 10.2954 140.703 10 142.017 10C142.942 10 143.792 10.1294 144.568 10.3881C145.345 10.6469 146.026 11.0252 146.612 11.5232C147.198 12.0163 147.67 12.6241 148.027 13.3466C148.384 14.0692 148.601 14.8967 148.677 15.8291Z" fill="#52565F"/>
  <path d="M150.281 13.4858V10.205H163V13.4858H158.598V25.2026H154.682V13.4858H150.281Z" fill="#52565F"/>
  <path d="M67 45.8242V30.8267H73.3454C74.4601 30.8267 75.3962 30.9805 76.1536 31.288C76.9158 31.5956 77.4898 32.0301 77.8757 32.5915C78.2663 33.153 78.4617 33.8145 78.4617 34.5761C78.4617 35.1277 78.3426 35.6306 78.1044 36.0846C77.8709 36.5386 77.5422 36.9194 77.1183 37.227C76.6943 37.5297 76.1989 37.7396 75.632 37.8568V38.0032C76.2608 38.0277 76.8324 38.1912 77.3469 38.4939C77.8614 38.7917 78.2711 39.2042 78.576 39.7315C78.8809 40.2539 79.0333 40.869 79.0333 41.5769C79.0333 42.3971 78.8237 43.1269 78.4045 43.7665C77.99 44.406 77.3993 44.9089 76.6324 45.275C75.8654 45.6412 74.9507 45.8242 73.8884 45.8242H67ZM70.973 42.5728H72.8309C73.4978 42.5728 73.998 42.4459 74.3315 42.192C74.6649 41.9333 74.8317 41.5525 74.8317 41.0496C74.8317 40.6981 74.7531 40.4003 74.5958 40.1562C74.4386 39.9121 74.2147 39.7266 73.9242 39.5997C73.6383 39.4727 73.293 39.4093 72.888 39.4093H70.973V42.5728ZM70.973 36.8901H72.6022C72.95 36.8901 73.2572 36.834 73.524 36.7217C73.7908 36.6094 73.998 36.4483 74.1457 36.2384C74.2981 36.0236 74.3743 35.7624 74.3743 35.4548C74.3743 34.991 74.2124 34.6371 73.8884 34.393C73.5645 34.144 73.1548 34.0195 72.6594 34.0195H70.973V36.8901Z" fill="#52565F"/>
  <path d="M89.3028 30.8267H93.2758V40.4345C93.2758 41.5769 93.009 42.5655 92.4755 43.4003C91.9467 44.2303 91.2083 44.8722 90.2603 45.3263C89.3123 45.7754 88.2119 46 86.959 46C85.6966 46 84.5914 45.7754 83.6434 45.3263C82.6954 44.8722 81.957 44.2303 81.4283 43.4003C80.9042 42.5655 80.6422 41.5769 80.6422 40.4345V30.8267H84.6152V40.083C84.6152 40.5468 84.7153 40.9618 84.9153 41.3279C85.1154 41.6892 85.3917 41.9723 85.7442 42.1774C86.1015 42.3824 86.5064 42.4849 86.959 42.4849C87.4163 42.4849 87.8212 42.3824 88.1738 42.1774C88.5263 41.9723 88.8026 41.6892 89.0027 41.3279C89.2027 40.9618 89.3028 40.5468 89.3028 40.083V30.8267Z" fill="#52565F"/>
  <path d="M99.3382 30.8267V45.8242H95.3652V30.8267H99.3382Z" fill="#52565F"/>
  <path d="M101.422 45.8242V30.8267H105.395V42.5435H111.312V45.8242H101.422Z" fill="#52565F"/>
  <path d="M118.75 45.8242H113.119V30.8267H118.693C120.198 30.8267 121.499 31.1269 122.594 31.7274C123.695 32.323 124.543 33.1823 125.138 34.3051C125.738 35.4231 126.039 36.7632 126.039 38.3255C126.039 39.8877 125.741 41.2303 125.145 42.3531C124.55 43.4711 123.707 44.3303 122.616 44.9308C121.525 45.5264 120.236 45.8242 118.75 45.8242ZM117.092 42.3678H118.607C119.331 42.3678 119.948 42.2482 120.458 42.0089C120.972 41.7697 121.363 41.3572 121.63 40.7714C121.901 40.1855 122.037 39.3702 122.037 38.3255C122.037 37.2807 121.899 36.4654 121.623 35.8796C121.351 35.2937 120.951 34.8812 120.422 34.642C119.898 34.4028 119.255 34.2832 118.493 34.2832H117.092V42.3678Z" fill="#52565F"/>
  <path d="M128.078 45.8242V30.8267H138.625V34.1074H132.051V36.6851H138.082V39.9658H132.051V42.5435H138.596V45.8242H128.078Z" fill="#52565F"/>
  <path d="M140.797 45.8242V30.8267H147.113C148.2 30.8267 149.15 31.0293 149.965 31.4345C150.779 31.8397 151.413 32.4231 151.865 33.1847C152.318 33.9463 152.544 34.8592 152.544 35.9235C152.544 36.9976 152.311 37.9032 151.844 38.6404C151.382 39.3775 150.731 39.9341 149.893 40.31C149.059 40.6859 148.085 40.8739 146.97 40.8739H143.198V37.7103H146.17C146.637 37.7103 147.035 37.6517 147.363 37.5346C147.697 37.4125 147.952 37.2197 148.128 36.9561C148.309 36.6924 148.4 36.3482 148.4 35.9235C148.4 35.4939 148.309 35.1448 148.128 34.8763C147.952 34.6029 147.697 34.4028 147.363 34.2758C147.035 34.144 146.637 34.0781 146.17 34.0781H144.77V45.8242H140.797ZM149.371 38.9406L153.03 45.8242H148.714L145.141 38.9406H149.371Z" fill="#52565F"/>
</svg>
